
<svg width="223px" height="43px" viewBox="0 0 223 43" version="1.1" xmlns="http://www.w3.org/2000/svg" xmlns:xlink="http://www.w3.org/1999/xlink">
    <!-- Generator: Sketch 46.2 (44496) - http://www.bohemiancoding.com/sketch -->
    <desc>Created with Sketch.</desc>
    <defs>
        <linearGradient x1="-37.4429867%" y1="-38.7396155%" x2="126.624587%" y2="126.227938%" id="linearGradient-1">
            <stop stop-color="#7C4DFF" offset="0%"></stop>
            <stop stop-color="#E100FF" offset="100%"></stop>
        </linearGradient>
    </defs>
    <g id="Page-1" stroke="none" stroke-width="1" fill="none" fill-rule="evenodd">
        <g id="Desktop" transform="translate(-969.000000, -489.000000)" fill-rule="nonzero" fill="url(#linearGradient-1)">
            <g id="Right-Component" transform="translate(720.000000, -3.000000)">
                <g id="picatic-logo" transform="translate(249.000000, 492.000000)">
                    <path d="M33.4069657,3.11933053 L47.1889767,3.11933053 L36.715347,29.1269172 L22.9333361,29.1269172 L33.4069657,3.11933053 M15.720925,3.11933053 L29.502936,3.11933053 L13.782011,42.0897916 L2.84217094e-14,42.0897916 L15.720925,3.11933053 M74.9505897,20.9556797 L76.6708354,20.9556797 C80.37242,20.9556797 84.0211746,20.9556797 84.0211746,16.1832114 C84.0211746,11.2556575 80.6326399,11.2039623 76.6708354,11.2039623 L74.9505897,11.2039623 L74.9505897,20.9556797 L74.9505897,20.9556797 Z M64.7325922,3.00874889 L80.37242,3.00874889 C88.8173419,3.00874889 94.6556987,6.89892306 94.6556987,15.8721713 C94.6556987,25.1047644 89.6517047,29.1508931 80.7374264,29.1508931 L74.9505897,29.1508931 L74.9505897,42.1177059 L64.7325922,42.1177059 L64.7325922,3.00874889 L64.7325922,3.00874889 Z M97.9403201,15.5090015 L107.427868,15.5090015 L107.427868,42.1177059 L97.9403201,42.1177059 L97.9403201,15.5090015 Z M108.001574,5.29072375 C108.001574,8.19564778 105.603709,10.5814475 102.684094,10.5814475 C99.7649157,10.5814475 97.3666138,8.19564778 97.3666138,5.29072375 C97.3666138,2.38623414 99.7649157,0 102.684094,0 C105.603709,0 108.001574,2.38623414 108.001574,5.29072375 L108.001574,5.29072375 Z M131.929144,24.1712095 C130.521512,23.1338297 128.853659,22.3040997 127.028627,22.3040997 C123.379872,22.3040997 120.512214,25.1047644 120.512214,28.7877233 C120.512214,32.6257678 123.275086,35.3230421 127.184934,35.3230421 C128.853659,35.3230421 130.677818,34.6488321 131.929144,33.5076275 L131.929144,41.4956256 C129.843892,42.5330053 127.54994,43 125.255988,43 C117.332379,43 110.711616,37.1384567 110.711616,29.0987634 C110.711616,20.5408147 117.280423,14.6271418 125.672951,14.6271418 C127.86299,14.6271418 130.052592,15.1462661 131.929144,16.1832114 L131.929144,24.1712095 L131.929144,24.1712095 Z M144.648047,28.8394185 C144.648047,32.2109028 146.889606,34.8043522 150.747497,34.8043522 C154.605388,34.8043522 156.846947,32.2109028 156.846947,28.8394185 C156.846947,25.5717591 154.605388,22.8223551 150.747497,22.8223551 C146.889606,22.8223551 144.648047,25.5717591 144.648047,28.8394185 L144.648047,28.8394185 Z M166.022319,42.1177059 L156.534334,42.1177059 L156.534334,39.1615211 L156.429984,39.1615211 C154.762132,41.8066657 151.47751,43 148.349632,43 C140.426023,43 134.84745,36.4125515 134.84745,28.7877233 C134.84745,21.162895 140.321236,14.6271418 148.245282,14.6271418 C151.321204,14.6271418 154.553432,15.7683464 156.534334,18.1024509 L156.534334,15.5090015 L166.022319,15.5090015 L166.022319,42.1177059 L166.022319,42.1177059 Z M181.661273,42.1177059 L172.172852,42.1177059 L172.172852,23.2897842 L169.097804,23.2897842 L169.097804,15.5090015 L172.172852,15.5090015 L172.172852,7.52143781 L181.661273,7.52143781 L181.661273,15.5090015 L187.03071,15.5090015 L187.03071,23.2897842 L181.661273,23.2897842 L181.661273,42.1177059 L181.661273,42.1177059 Z M189.011176,15.5090015 L198.498724,15.5090015 L198.498724,42.1177059 L189.011176,42.1177059 L189.011176,15.5090015 Z M199.07243,5.29072375 C199.07243,8.19564778 196.674565,10.5814475 193.75495,10.5814475 C190.835771,10.5814475 188.437469,8.19564778 188.437469,5.29072375 C188.437469,2.38623414 190.835771,0 193.75495,0 C196.674565,0 199.07243,2.38623414 199.07243,5.29072375 L199.07243,5.29072375 Z M223,24.1712095 C221.592367,23.1338297 219.924515,22.3040997 218.099483,22.3040997 C214.450728,22.3040997 211.58307,25.1047644 211.58307,28.7877233 C211.58307,32.6257678 214.345942,35.3230421 218.255789,35.3230421 C219.924515,35.3230421 221.748674,34.6488321 223,33.5076275 L223,41.4956256 C220.914748,42.5330053 218.620796,43 216.326844,43 C208.403235,43 201.782472,37.1384567 201.782472,29.0987634 C201.782472,20.5408147 208.351278,14.6271418 216.743807,14.6271418 C218.933846,14.6271418 221.123448,15.1462661 223,16.1832114 L223,24.1712095 L223,24.1712095 Z" id="Shape"></path>
                </g>
            </g>
        </g>
    </g>
</svg>